<svg width="400" height="482" fill="none" xmlns="http://www.w3.org/2000/svg"><ellipse cx="3.182" cy="3.256" rx="3.182" ry="3.256" fill="#E9993B" fill-opacity=".2"/><ellipse cx="3.182" cy="42.858" rx="3.182" ry="3.256" fill="#E9993B" fill-opacity=".2"/><ellipse cx="3.182" cy="82.462" rx="3.182" ry="3.256" fill="#E9993B" fill-opacity=".2"/><ellipse cx="3.182" cy="122.065" rx="3.182" ry="3.256" fill="#E9993B" fill-opacity=".2"/><ellipse cx="3.182" cy="161.669" rx="3.182" ry="3.256" fill="#E9993B" fill-opacity=".2"/><ellipse cx="3.182" cy="201.272" rx="3.182" ry="3.256" fill="#E9993B" fill-opacity=".2"/><ellipse cx="3.182" cy="240.874" rx="3.182" ry="3.256" fill="#E9993B" fill-opacity=".2"/><ellipse cx="3.182" cy="280.477" rx="3.182" ry="3.256" fill="#E9993B" fill-opacity=".2"/><ellipse cx="3.182" cy="320.079" rx="3.182" ry="3.256" fill="#E9993B" fill-opacity=".2"/><ellipse cx="3.182" cy="359.683" rx="3.182" ry="3.256" fill="#E9993B" fill-opacity=".2"/><ellipse cx="3.182" cy="399.286" rx="3.182" ry="3.256" fill="#E9993B" fill-opacity=".2"/><ellipse cx="3.182" cy="438.889" rx="3.182" ry="3.256" fill="#E9993B" fill-opacity=".2"/><ellipse cx="3.182" cy="478.491" rx="3.182" ry="3.256" fill="#E9993B" fill-opacity=".2"/><ellipse cx="46.918" cy="3.256" rx="3.182" ry="3.256" fill="#E9993B" fill-opacity=".2"/><ellipse cx="46.918" cy="42.858" rx="3.182" ry="3.256" fill="#E9993B" fill-opacity=".2"/><ellipse cx="46.918" cy="82.462" rx="3.182" ry="3.256" fill="#E9993B" fill-opacity=".2"/><ellipse cx="46.918" cy="122.065" rx="3.182" ry="3.256" fill="#E9993B" fill-opacity=".2"/><ellipse cx="46.918" cy="161.669" rx="3.182" ry="3.256" fill="#E9993B" fill-opacity=".2"/><ellipse cx="46.918" cy="201.272" rx="3.182" ry="3.256" fill="#E9993B" fill-opacity=".2"/><ellipse cx="46.918" cy="240.874" rx="3.182" ry="3.256" fill="#E9993B" fill-opacity=".2"/><ellipse cx="46.918" cy="280.477" rx="3.182" ry="3.256" fill="#E9993B" fill-opacity=".2"/><ellipse cx="46.918" cy="320.079" rx="3.182" ry="3.256" fill="#E9993B" fill-opacity=".2"/><ellipse cx="46.918" cy="359.683" rx="3.182" ry="3.256" fill="#E9993B" fill-opacity=".2"/><ellipse cx="46.918" cy="399.286" rx="3.182" ry="3.256" fill="#E9993B" fill-opacity=".2"/><ellipse cx="46.918" cy="438.889" rx="3.182" ry="3.256" fill="#E9993B" fill-opacity=".2"/><ellipse cx="46.918" cy="478.491" rx="3.182" ry="3.256" fill="#E9993B" fill-opacity=".2"/><ellipse cx="90.659" cy="3.256" rx="3.182" ry="3.256" fill="#E9993B" fill-opacity=".2"/><ellipse cx="90.659" cy="42.858" rx="3.182" ry="3.256" fill="#E9993B" fill-opacity=".2"/><ellipse cx="90.659" cy="82.462" rx="3.182" ry="3.256" fill="#E9993B" fill-opacity=".2"/><ellipse cx="90.659" cy="122.065" rx="3.182" ry="3.256" fill="#E9993B" fill-opacity=".2"/><ellipse cx="90.659" cy="161.669" rx="3.182" ry="3.256" fill="#E9993B" fill-opacity=".2"/><ellipse cx="90.659" cy="201.272" rx="3.182" ry="3.256" fill="#E9993B" fill-opacity=".2"/><ellipse cx="90.659" cy="240.874" rx="3.182" ry="3.256" fill="#E9993B" fill-opacity=".2"/><ellipse cx="90.659" cy="280.477" rx="3.182" ry="3.256" fill="#E9993B" fill-opacity=".2"/><ellipse cx="90.659" cy="320.079" rx="3.182" ry="3.256" fill="#E9993B" fill-opacity=".2"/><ellipse cx="90.659" cy="359.683" rx="3.182" ry="3.256" fill="#E9993B" fill-opacity=".2"/><ellipse cx="90.659" cy="399.286" rx="3.182" ry="3.256" fill="#E9993B" fill-opacity=".2"/><ellipse cx="90.659" cy="438.889" rx="3.182" ry="3.256" fill="#E9993B" fill-opacity=".2"/><ellipse cx="90.659" cy="478.491" rx="3.182" ry="3.256" fill="#E9993B" fill-opacity=".2"/><ellipse cx="134.395" cy="3.256" rx="3.182" ry="3.256" fill="#E9993B" fill-opacity=".2"/><ellipse cx="134.395" cy="42.858" rx="3.182" ry="3.256" fill="#E9993B" fill-opacity=".2"/><ellipse cx="134.395" cy="82.462" rx="3.182" ry="3.256" fill="#E9993B" fill-opacity=".2"/><ellipse cx="134.395" cy="122.065" rx="3.182" ry="3.256" fill="#E9993B" fill-opacity=".2"/><ellipse cx="134.395" cy="161.669" rx="3.182" ry="3.256" fill="#E9993B" fill-opacity=".2"/><ellipse cx="134.395" cy="201.272" rx="3.182" ry="3.256" fill="#E9993B" fill-opacity=".2"/><ellipse cx="134.395" cy="240.874" rx="3.182" ry="3.256" fill="#E9993B" fill-opacity=".2"/><ellipse cx="134.395" cy="280.477" rx="3.182" ry="3.256" fill="#E9993B" fill-opacity=".2"/><ellipse cx="134.395" cy="320.079" rx="3.182" ry="3.256" fill="#E9993B" fill-opacity=".2"/><ellipse cx="134.395" cy="359.683" rx="3.182" ry="3.256" fill="#E9993B" fill-opacity=".2"/><ellipse cx="134.395" cy="399.286" rx="3.182" ry="3.256" fill="#E9993B" fill-opacity=".2"/><ellipse cx="134.395" cy="438.889" rx="3.182" ry="3.256" fill="#E9993B" fill-opacity=".2"/><ellipse cx="134.395" cy="478.491" rx="3.182" ry="3.256" fill="#E9993B" fill-opacity=".2"/><ellipse cx="178.13" cy="3.256" rx="3.182" ry="3.256" fill="#E9993B" fill-opacity=".2"/><ellipse cx="178.13" cy="42.858" rx="3.182" ry="3.256" fill="#E9993B" fill-opacity=".2"/><ellipse cx="178.13" cy="82.462" rx="3.182" ry="3.256" fill="#E9993B" fill-opacity=".2"/><ellipse cx="178.13" cy="122.065" rx="3.182" ry="3.256" fill="#E9993B" fill-opacity=".2"/><ellipse cx="178.13" cy="161.669" rx="3.182" ry="3.256" fill="#E9993B" fill-opacity=".2"/><ellipse cx="178.13" cy="201.272" rx="3.182" ry="3.256" fill="#E9993B" fill-opacity=".2"/><ellipse cx="178.13" cy="240.874" rx="3.182" ry="3.256" fill="#E9993B" fill-opacity=".2"/><ellipse cx="178.13" cy="280.477" rx="3.182" ry="3.256" fill="#E9993B" fill-opacity=".2"/><ellipse cx="178.13" cy="320.079" rx="3.182" ry="3.256" fill="#E9993B" fill-opacity=".2"/><ellipse cx="178.13" cy="359.683" rx="3.182" ry="3.256" fill="#E9993B" fill-opacity=".2"/><ellipse cx="178.13" cy="399.286" rx="3.182" ry="3.256" fill="#E9993B" fill-opacity=".2"/><ellipse cx="178.13" cy="438.889" rx="3.182" ry="3.256" fill="#E9993B" fill-opacity=".2"/><ellipse cx="178.13" cy="478.491" rx="3.182" ry="3.256" fill="#E9993B" fill-opacity=".2"/><ellipse cx="221.87" cy="3.256" rx="3.182" ry="3.256" fill="#E9993B" fill-opacity=".2"/><ellipse cx="221.87" cy="42.858" rx="3.182" ry="3.256" fill="#E9993B" fill-opacity=".2"/><ellipse cx="221.87" cy="82.462" rx="3.182" ry="3.256" fill="#E9993B" fill-opacity=".2"/><ellipse cx="221.87" cy="122.065" rx="3.182" ry="3.256" fill="#E9993B" fill-opacity=".2"/><ellipse cx="221.87" cy="161.669" rx="3.182" ry="3.256" fill="#E9993B" fill-opacity=".2"/><ellipse cx="221.87" cy="201.272" rx="3.182" ry="3.256" fill="#E9993B" fill-opacity=".2"/><ellipse cx="221.87" cy="240.874" rx="3.182" ry="3.256" fill="#E9993B" fill-opacity=".2"/><ellipse cx="221.87" cy="280.477" rx="3.182" ry="3.256" fill="#E9993B" fill-opacity=".2"/><ellipse cx="221.87" cy="320.079" rx="3.182" ry="3.256" fill="#E9993B" fill-opacity=".2"/><ellipse cx="221.87" cy="359.683" rx="3.182" ry="3.256" fill="#E9993B" fill-opacity=".2"/><ellipse cx="221.87" cy="399.286" rx="3.182" ry="3.256" fill="#E9993B" fill-opacity=".2"/><ellipse cx="221.87" cy="438.889" rx="3.182" ry="3.256" fill="#E9993B" fill-opacity=".2"/><ellipse cx="221.87" cy="478.491" rx="3.182" ry="3.256" fill="#E9993B" fill-opacity=".2"/><ellipse cx="265.606" cy="3.256" rx="3.182" ry="3.256" fill="#E9993B" fill-opacity=".2"/><ellipse cx="265.606" cy="42.858" rx="3.182" ry="3.256" fill="#E9993B" fill-opacity=".2"/><ellipse cx="265.606" cy="82.462" rx="3.182" ry="3.256" fill="#E9993B" fill-opacity=".2"/><ellipse cx="265.606" cy="122.065" rx="3.182" ry="3.256" fill="#E9993B" fill-opacity=".2"/><ellipse cx="265.606" cy="161.669" rx="3.182" ry="3.256" fill="#E9993B" fill-opacity=".2"/><ellipse cx="265.606" cy="201.272" rx="3.182" ry="3.256" fill="#E9993B" fill-opacity=".2"/><ellipse cx="265.606" cy="240.874" rx="3.182" ry="3.256" fill="#E9993B" fill-opacity=".2"/><ellipse cx="265.606" cy="280.477" rx="3.182" ry="3.256" fill="#E9993B" fill-opacity=".2"/><ellipse cx="265.606" cy="320.079" rx="3.182" ry="3.256" fill="#E9993B" fill-opacity=".2"/><ellipse cx="265.606" cy="359.683" rx="3.182" ry="3.256" fill="#E9993B" fill-opacity=".2"/><ellipse cx="265.606" cy="399.286" rx="3.182" ry="3.256" fill="#E9993B" fill-opacity=".2"/><ellipse cx="265.606" cy="438.889" rx="3.182" ry="3.256" fill="#E9993B" fill-opacity=".2"/><ellipse cx="265.606" cy="478.491" rx="3.182" ry="3.256" fill="#E9993B" fill-opacity=".2"/><ellipse cx="309.341" cy="3.256" rx="3.182" ry="3.256" fill="#E9993B" fill-opacity=".2"/><ellipse cx="309.341" cy="42.858" rx="3.182" ry="3.256" fill="#E9993B" fill-opacity=".2"/><ellipse cx="309.341" cy="82.462" rx="3.182" ry="3.256" fill="#E9993B" fill-opacity=".2"/><ellipse cx="309.341" cy="122.065" rx="3.182" ry="3.256" fill="#E9993B" fill-opacity=".2"/><ellipse cx="309.341" cy="161.669" rx="3.182" ry="3.256" fill="#E9993B" fill-opacity=".2"/><ellipse cx="309.341" cy="201.272" rx="3.182" ry="3.256" fill="#E9993B" fill-opacity=".2"/><ellipse cx="309.341" cy="240.874" rx="3.182" ry="3.256" fill="#E9993B" fill-opacity=".2"/><ellipse cx="309.341" cy="280.477" rx="3.182" ry="3.256" fill="#E9993B" fill-opacity=".2"/><ellipse cx="309.341" cy="320.079" rx="3.182" ry="3.256" fill="#E9993B" fill-opacity=".2"/><ellipse cx="309.341" cy="359.683" rx="3.182" ry="3.256" fill="#E9993B" fill-opacity=".2"/><ellipse cx="309.341" cy="399.286" rx="3.182" ry="3.256" fill="#E9993B" fill-opacity=".2"/><ellipse cx="309.341" cy="438.889" rx="3.182" ry="3.256" fill="#E9993B" fill-opacity=".2"/><ellipse cx="309.341" cy="478.491" rx="3.182" ry="3.256" fill="#E9993B" fill-opacity=".2"/><ellipse cx="353.08" cy="3.256" rx="3.182" ry="3.256" fill="#E9993B" fill-opacity=".2"/><ellipse cx="353.08" cy="42.858" rx="3.182" ry="3.256" fill="#E9993B" fill-opacity=".2"/><ellipse cx="353.08" cy="82.462" rx="3.182" ry="3.256" fill="#E9993B" fill-opacity=".2"/><ellipse cx="353.08" cy="122.065" rx="3.182" ry="3.256" fill="#E9993B" fill-opacity=".2"/><ellipse cx="353.08" cy="161.669" rx="3.182" ry="3.256" fill="#E9993B" fill-opacity=".2"/><ellipse cx="353.08" cy="201.272" rx="3.182" ry="3.256" fill="#E9993B" fill-opacity=".2"/><ellipse cx="353.08" cy="240.874" rx="3.182" ry="3.256" fill="#E9993B" fill-opacity=".2"/><ellipse cx="353.08" cy="280.477" rx="3.182" ry="3.256" fill="#E9993B" fill-opacity=".2"/><ellipse cx="353.08" cy="320.079" rx="3.182" ry="3.256" fill="#E9993B" fill-opacity=".2"/><ellipse cx="353.08" cy="359.683" rx="3.182" ry="3.256" fill="#E9993B" fill-opacity=".2"/><ellipse cx="353.08" cy="399.286" rx="3.182" ry="3.256" fill="#E9993B" fill-opacity=".2"/><ellipse cx="353.08" cy="438.889" rx="3.182" ry="3.256" fill="#E9993B" fill-opacity=".2"/><ellipse cx="353.08" cy="478.491" rx="3.182" ry="3.256" fill="#E9993B" fill-opacity=".2"/><ellipse cx="396.818" cy="3.256" rx="3.182" ry="3.256" fill="#E9993B" fill-opacity=".2"/><ellipse cx="396.818" cy="42.858" rx="3.182" ry="3.256" fill="#E9993B" fill-opacity=".2"/><ellipse cx="396.818" cy="82.462" rx="3.182" ry="3.256" fill="#E9993B" fill-opacity=".2"/><ellipse cx="396.818" cy="122.065" rx="3.182" ry="3.256" fill="#E9993B" fill-opacity=".2"/><ellipse cx="396.818" cy="161.669" rx="3.182" ry="3.256" fill="#E9993B" fill-opacity=".2"/><ellipse cx="396.818" cy="201.272" rx="3.182" ry="3.256" fill="#E9993B" fill-opacity=".2"/><ellipse cx="396.818" cy="240.874" rx="3.182" ry="3.256" fill="#E9993B" fill-opacity=".2"/><ellipse cx="396.818" cy="280.477" rx="3.182" ry="3.256" fill="#E9993B" fill-opacity=".2"/><ellipse cx="396.818" cy="320.079" rx="3.182" ry="3.256" fill="#E9993B" fill-opacity=".2"/><ellipse cx="396.818" cy="359.683" rx="3.182" ry="3.256" fill="#E9993B" fill-opacity=".2"/><ellipse cx="396.816" cy="399.286" rx="3.182" ry="3.256" fill="#E9993B" fill-opacity=".2"/><ellipse cx="396.816" cy="438.889" rx="3.182" ry="3.256" fill="#E9993B" fill-opacity=".2"/><ellipse cx="396.816" cy="478.491" rx="3.182" ry="3.256" fill="#E9993B" fill-opacity=".2"/></svg>